<svg xmlns="http://www.w3.org/2000/svg" viewBox="0 0 64 64" role="img" aria-labelledby="title">
  <title>CHOCOCAM favicon</title>
  <rect width="64" height="64" rx="12" fill="#4E342E"/>
  <path d="M22 15c-8 5-11 16-6 25 4 7 12 10 20 9 8-1 14-6 17-13 3-8 0-17-7-22-6-4-16-4-24 1Z" fill="#C9A227"/>
  <path d="M29 19c-5 3-7 10-4 15 3 5 8 7 14 6 5-1 9-4 11-9 2-5 0-11-5-14-4-3-10-3-16 2Z" fill="#F8F5F0"/>
  <path d="M32 21c-3 6-3 15 1 22" stroke="#4E342E" stroke-width="3" stroke-linecap="round"/>
</svg>
